<?xml version="1.0" encoding="UTF-8" standalone="no"?>
<!-- Created with Inkscape (http://www.inkscape.org/) -->

<svg
   xmlns:dc="http://purl.org/dc/elements/1.1/"
   xmlns:cc="http://creativecommons.org/ns#"
   xmlns:rdf="http://www.w3.org/1999/02/22-rdf-syntax-ns#"
   xmlns:svg="http://www.w3.org/2000/svg"
   xmlns="http://www.w3.org/2000/svg"
   xmlns:sodipodi="http://sodipodi.sourceforge.net/DTD/sodipodi-0.dtd"
   xmlns:inkscape="http://www.inkscape.org/namespaces/inkscape"
   width="210mm"
   height="210mm"
   viewBox="0 0 744.09449 744.09448"
   id="svg2"
   version="1.1"
   inkscape:version="0.91 r13725"
   sodipodi:docname="wi-day-rain.svg">
  <defs
     id="defs4" />
  <sodipodi:namedview
     id="base"
     pagecolor="#ffffff"
     bordercolor="#666666"
     borderopacity="1.0"
     inkscape:pageopacity="0.0"
     inkscape:pageshadow="2"
     inkscape:zoom="0.66550463"
     inkscape:cx="371.2241"
     inkscape:cy="370.01883"
     inkscape:document-units="px"
     inkscape:current-layer="layer1"
     showgrid="false"
     inkscape:window-width="1366"
     inkscape:window-height="719"
     inkscape:window-x="0"
     inkscape:window-y="0"
     inkscape:window-maximized="1" />
  <metadata
     id="metadata7">
    <rdf:RDF>
      <cc:Work
         rdf:about="">
        <dc:format>image/svg+xml</dc:format>
        <dc:type
           rdf:resource="http://purl.org/dc/dcmitype/StillImage" />
        <dc:title></dc:title>
      </cc:Work>
    </rdf:RDF>
  </metadata>
  <g
     inkscape:label="Layer 1"
     inkscape:groupmode="layer"
     id="layer1"
     transform="translate(0,-308.26772)">
    <path
       id="path3337"
       d="m 3.0953305,751.05399 c 0,36.43177 12.6004815,67.93295 38.0753115,94.22954 25.474859,26.29664 56.428168,40.26672 93.407818,41.91025 3.01317,0 4.6567,-1.64353 4.6567,-4.65668 l 0,-36.7057 c 0,-3.01317 -1.64353,-4.6567 -4.6567,-4.6567 -23.5574,-1.09571 -43.55379,-10.68302 -59.989179,-28.2141 -16.435388,-17.53106 -24.6531,-38.34922 -24.6531,-61.90661 0,-22.46173 7.669851,-42.18419 23.28347,-59.16741 15.613642,-16.98324 34.788229,-26.57056 57.523869,-29.30979 l 14.51795,-1.3696 c 3.56099,0 5.47843,-1.64354 5.47843,-4.65671 l 1.91747,-14.79186 c 3.01318,-29.58369 15.33973,-54.51069 37.52749,-74.50709 22.18778,-19.99639 48.21048,-30.13156 78.06809,-30.13156 29.85764,0 55.88033,10.13517 78.34202,30.13156 22.46173,19.9964 35.06218,44.9234 38.34925,74.50709 l 1.91746,15.61363 c 0,3.28707 1.64354,5.20454 4.65671,5.20454 l 44.37556,0 c 24.37915,0 45.19732,8.76554 63.0023,26.29663 17.80503,17.53108 26.57056,38.07531 26.57056,62.18057 0,23.83129 -8.21769,44.37555 -24.6531,61.90661 -16.43536,17.53108 -36.43175,26.84449 -59.71522,28.2141 -3.28707,0 -5.20454,1.64353 -5.20454,4.6567 l 0,36.7057 c 0,3.01315 1.64354,4.65668 5.20454,4.65668 36.43177,-1.0957 67.38508,-15.06575 92.85994,-41.36238 25.47486,-26.57056 38.0753,-58.07173 38.0753,-94.50352 0,-19.72244 -3.8349,-38.07531 -11.50473,-55.05852 21.36599,-26.57057 32.04901,-56.70211 32.04901,-90.66857 0,-26.02271 -6.57418,-50.12796 -19.44856,-72.31573 -12.87439,-22.18779 -30.40547,-39.71888 -52.59324,-52.59327 -22.18779,-12.87437 -46.01912,-19.17461 -71.76788,-19.17461 -42.73202,0 -78.0681,15.88756 -106.2822,47.66262 -22.46168,-12.05261 -47.11478,-18.07892 -74.23318,-18.07892 -38.62315,0 -73.13749,12.05262 -102.99509,36.15789 -29.85764,24.10522 -49.03227,54.78462 -57.52387,92.03816 -30.405472,7.12201 -55.332501,23.00956 -75.054957,47.66262 -19.722458,24.6531 -29.5837025,52.59326 -29.5837025,84.09444 z M 151.01385,938.96527 c 0,4.65668 1.36962,9.03945 4.38276,13.42223 3.01317,4.38276 7.39594,7.39593 13.42226,9.03947 3.01313,0.54782 5.47844,1.0957 7.3959,1.0957 10.68302,0 17.80502,-5.75241 21.0921,-17.53109 l 43.27986,-161.06682 c 1.91746,-6.57417 1.09569,-12.60048 -2.19139,-18.35285 -3.28709,-5.75237 -8.21771,-9.03949 -14.51794,-10.40908 -6.02631,-1.91748 -11.77868,-1.36964 -17.25716,1.91747 -5.47844,3.01313 -9.31337,7.66984 -11.23083,13.97008 l -43.27986,161.88859 c -0.54788,3.561 -1.0957,5.47844 -1.0957,6.0263 z m 71.49395,84.36833 c 0,5.2045 1.3696,9.8611 4.10884,14.244 2.73922,4.3827 7.39593,7.122 14.24401,8.2177 3.01314,0.5478 5.47848,1.0957 7.12201,1.0957 4.38277,0 8.49161,-1.6436 12.32654,-4.6568 3.83491,-3.287 6.30021,-7.6698 7.39592,-13.1483 l 65.74157,-244.61331 c 1.64354,-6.30024 1.09566,-12.32654 -1.91746,-17.53108 -3.01317,-5.20453 -7.66985,-9.03945 -13.69619,-10.95692 -6.30022,-1.91747 -12.32651,-1.36959 -17.80499,1.91747 -5.47847,3.01314 -9.31337,7.66985 -10.95694,13.97008 l -65.74154,244.61326 c -0.54784,4.1089 -0.82177,6.5742 -0.82177,6.8482 z m 11.50477,-608.9312 c 0,6.57417 2.19137,12.05261 6.84808,16.70931 l 17.80498,18.07892 c 5.20455,4.10887 10.95696,6.02631 16.98327,6.02631 5.75236,0 11.23084,-2.19138 15.88754,-6.30021 4.65668,-4.38277 7.12199,-9.58731 7.12199,-16.16149 0,-6.57414 -2.19139,-12.60044 -6.57416,-17.53107 l -17.53108,-17.80501 c -4.9306,-4.65669 -10.40908,-6.84807 -16.43538,-6.84807 -6.57415,0 -12.32655,2.4653 -16.98323,7.12201 -4.65671,4.65666 -7.12201,10.40908 -7.12201,16.7093 z m 102.17332,525.11071 c 0,4.38278 1.36964,8.76555 4.10888,12.87439 2.73923,4.10885 7.12197,7.122 12.60045,8.76554 3.01316,0.54786 5.47847,1.0957 6.84807,1.0957 4.65671,0 9.31341,-1.36961 13.42225,-4.10884 4.10884,-2.73924 6.84808,-7.122 8.21768,-13.42224 L 424.6631,783.65082 c 1.64354,-6.30023 1.09567,-12.32654 -1.91746,-17.53108 -3.01318,-5.47844 -7.66986,-9.03944 -13.69616,-10.95691 -6.57417,-1.91748 -12.32654,-1.36964 -17.80502,1.91747 -5.47847,3.01313 -9.03944,7.66984 -10.68301,13.97008 l -43.27986,161.88859 c -0.54783,4.10883 -1.0957,6.30021 -1.0957,6.57414 z m 44.64949,-403.76275 c 19.44855,-18.35285 41.91026,-27.39233 67.93295,-27.39233 26.84446,0 49.85402,9.58732 68.48079,28.48803 18.90071,18.9007 28.21409,41.91026 28.21409,69.02863 0,16.98325 -4.6567,33.96646 -14.24402,50.67579 -26.57053,-26.57053 -58.34564,-39.71885 -95.59917,-39.71885 l -9.03945,0 c -7.39594,-32.32293 -22.73563,-59.1674 -45.74519,-81.08127 z M 425.21094,391.9407 c 0,6.30023 2.19139,11.7787 6.84807,16.16148 4.65671,4.38276 10.13518,6.57415 16.70932,6.57415 6.30024,0 11.77872,-2.19139 16.16146,-6.30025 4.38276,-4.38278 6.57416,-9.5873 6.57416,-16.16146 l 0,-56.42816 c 0,-7.12201 -2.1914,-12.87441 -6.30023,-17.25718 -4.38277,-4.38277 -9.58732,-6.57415 -16.16146,-6.57415 -6.84807,0 -12.60047,2.19138 -16.98325,6.84808 -4.38277,4.6567 -6.57414,10.13514 -6.57414,16.98325 l 0,56.15424 z m 151.4795,62.45447 c 0,6.57418 2.46531,12.05264 7.39594,16.16149 3.83492,4.38277 8.76555,6.57414 15.06576,7.12201 6.30024,0.54784 12.05262,-1.91747 16.98325,-7.12201 l 39.44491,-39.17102 c 4.93064,-4.65671 7.12202,-10.40907 7.12202,-17.25714 0,-6.57419 -2.19138,-12.32657 -6.84809,-16.70934 -4.65667,-4.38277 -10.13513,-6.57416 -16.70931,-6.57416 -5.75238,0 -10.95692,2.19139 -15.88752,6.8481 l -39.17102,39.44491 c -4.93063,4.65671 -7.39594,10.4091 -7.39594,17.25716 z m 22.18779,324.59898 c 0,6.57414 2.19138,12.32652 6.57415,17.25716 l 17.80502,17.25716 c 4.9306,3.8349 10.40907,5.75237 16.43539,5.75237 l 0.54783,0.54786 c 6.30025,0 11.50478,-2.1914 15.88755,-6.57418 4.38277,-4.38276 6.57415,-10.13514 6.57415,-16.70932 0,-6.57413 -2.46531,-11.77866 -7.12202,-15.88752 l -16.98322,-18.07893 c -4.93061,-4.38278 -10.68301,-6.57416 -16.98324,-6.57416 -6.30022,0 -11.77869,2.19138 -16.16146,6.84808 -4.38277,4.65671 -6.57415,9.5873 -6.57415,16.16148 z m 39.99279,-173.39336 c 0,6.57414 2.4653,11.77867 7.12198,16.16145 4.93063,4.93061 10.4091,7.12201 16.98325,7.12201 l 55.60639,0 c 6.57418,0 12.05262,-2.1914 16.70932,-6.84809 4.65671,-4.6567 6.84809,-10.13518 6.84809,-16.43537 0,-6.57418 -2.19138,-12.05262 -6.84809,-16.70932 -4.6567,-4.6567 -10.13514,-7.12201 -16.70932,-7.12201 l -55.60639,0 c -6.57415,0 -12.05262,2.46531 -16.98325,7.12201 -4.93061,4.6567 -7.12198,10.13514 -7.12198,16.70932 z"
       inkscape:connector-curvature="0"
       style="fill:#000000" />
  </g>
</svg>
